<svg width="741" height="243" viewBox="0 0 741 243" fill="none" xmlns="http://www.w3.org/2000/svg">
<path fill-rule="evenodd" clip-rule="evenodd" d="M689.477 -547.075C769.17 -487.722 835.167 -398.807 842.537 -301.258C849.352 -211.063 761.805 -148.464 725.799 -66.3451C696.853 -0.324666 701.543 78.6882 652.71 131.694C598.609 190.417 524.611 231.392 444.03 239.497C359.635 247.986 262.51 237.466 201.831 177.044C143.02 118.481 179.566 18.7644 146.498 -56.779C110.316 -139.434 -14.6495 -191.644 2.1991 -279.003C18.7044 -364.582 150.657 -360.661 216.143 -417.889C288.684 -481.282 308.828 -603.318 402.602 -628.912C499.754 -655.427 607.528 -608.109 689.477 -547.075Z" fill="#352535"/>
</svg>
