<svg width="316" height="607" viewBox="0 0 316 607" fill="none" xmlns="http://www.w3.org/2000/svg">
<path fill-rule="evenodd" clip-rule="evenodd" d="M451.279 -270.369C550.247 -261.478 653.008 -220.228 710.323 -140.949C763.317 -67.6462 721.454 31.5033 733.731 120.325C743.6 191.733 788.934 256.617 775.046 327.338C759.661 405.687 718.033 479.321 653.6 528.384C586.116 579.771 497.839 621.617 414.516 601.867C333.757 582.725 312.736 478.623 245.033 431.543C170.956 380.03 37.142 400.911 5.79859 317.646C-24.9063 236.077 89.5998 170.388 115.471 87.3558C144.128 -4.61993 97.4513 -119.162 163.98 -190.033C232.905 -263.456 349.508 -279.512 451.279 -270.369Z" fill="#E56E6E"/>
</svg>
